<svg class="wave" width="32" height="31" viewBox="0 0 32 31" fill="none" xmlns="http://www.w3.org/2000/svg">
<path d="M4.89375 8.06701C5.69241 7.5088 6.89635 7.61585 7.61344 8.20805L6.79099 7.01261C6.12913 6.06866 6.36617 5.0474 7.31097 4.38468C8.25577 3.72451 10.933 5.49941 10.933 5.49941C10.2652 4.54611 10.3901 3.33793 11.3434 2.66926C12.2966 2.00315 13.6119 2.2334 14.2797 3.18839L23.1329 15.6951L22.0046 26.6341L12.5881 23.1999L4.37462 11.0221C3.70086 10.0628 3.93366 8.73992 4.89375 8.06701Z" fill="#90603E"/>
<path d="M3.05351 15.0247C3.05351 15.0247 2.09172 13.6228 3.49447 12.6618C4.89553 11.7009 5.85647 13.102 5.85647 13.102L10.3179 19.6085C10.4717 19.3519 10.6399 19.0987 10.8277 18.8489L4.63554 9.81981C4.63554 9.81981 3.6746 8.41876 5.0765 7.45782C6.47755 6.49688 7.43849 7.89793 7.43849 7.89793L13.2628 16.3918C13.4794 16.215 13.7012 16.0375 13.9297 15.8633L7.17765 6.01513C7.17765 6.01513 6.21671 4.61408 7.61862 3.65314C9.01967 2.6922 9.98061 4.09325 9.98061 4.09325L16.7327 13.9397C16.9808 13.7876 17.2263 13.6559 17.4727 13.5166L11.1616 4.31331C11.1616 4.31331 10.2007 2.91225 11.6017 1.95131C13.0028 0.990373 13.9637 2.39143 13.9637 2.39143L20.6368 12.1232L21.6512 13.6032C17.4472 16.4869 17.047 21.9119 19.449 25.4149C19.929 26.1159 20.63 25.6358 20.63 25.6358C17.7471 21.431 18.6274 16.7061 22.8322 13.8233L21.5926 7.61925C21.5926 7.61925 21.1296 5.98454 22.7634 5.52064C24.3981 5.05759 24.862 6.69229 24.862 6.69229L26.2937 10.9439C26.8612 12.6296 27.4653 14.3093 28.2648 15.8981C30.5223 20.3842 29.1739 25.9595 24.9172 28.8797C20.274 32.0633 13.9263 30.8798 10.7419 26.2374L3.05351 15.0247Z" fill="#AF7E57"/>
<path d="M10.9594 27.5196C7.56082 27.5196 4.12658 24.0853 4.12658 20.6868C4.12658 20.2169 3.78248 19.8372 3.31263 19.8372C2.84278 19.8372 2.42731 20.2169 2.42731 20.6868C2.42731 25.7846 5.86154 29.2189 10.9594 29.2189C11.4292 29.2189 11.809 28.8034 11.809 28.3335C11.809 27.8637 11.4292 27.5196 10.9594 27.5196Z" fill="#5DADEC"/>
<path d="M6.71114 29.183C4.16222 29.183 2.46295 27.4838 2.46295 24.9348C2.46295 24.465 2.08316 24.0852 1.61331 24.0852C1.14346 24.0852 0.763672 24.465 0.763672 24.9348C0.763672 28.3334 3.31258 30.8823 6.71114 30.8823C7.18098 30.8823 7.56077 30.5025 7.56077 30.0327C7.56077 29.5628 7.18098 29.183 6.71114 29.183ZM21.155 1.99463C20.686 1.99463 20.3053 2.37527 20.3053 2.84427C20.3053 3.31327 20.686 3.6939 21.155 3.6939C24.5535 3.6939 27.9521 6.74325 27.9521 10.491C27.9521 10.96 28.3327 11.3406 28.8017 11.3406C29.2707 11.3406 29.6514 10.96 29.6514 10.491C29.6514 5.8061 26.2528 1.99463 21.155 1.99463Z" fill="#5DADEC"/>
<path d="M25.4032 0.331116C24.9342 0.331116 24.5535 0.676069 24.5535 1.14507C24.5535 1.61407 24.9342 2.03039 25.4032 2.03039C27.9521 2.03039 29.6157 3.92083 29.6157 6.24289C29.6157 6.71189 30.0311 7.09253 30.501 7.09253C30.9708 7.09253 31.3149 6.71189 31.3149 6.24289C31.3149 2.98284 28.8017 0.331116 25.4032 0.331116Z" fill="#5DADEC"/>
</svg>